<mxfile host="app.diagrams.net" modified="2021-08-07T01:44:00.953Z" agent="5.0 (Windows NT 10.0; Win64; x64) AppleWebKit/537.36 (KHTML, like Gecko) Chrome/92.0.4515.131 Safari/537.36" etag="YlcSfFbwzbGPE-UCJZEY" version="14.9.5" type="github">
  <diagram id="Ij6Capr7Xxt6DKLIksAM" name="Page-1">
    <mxGraphModel dx="1422" dy="800" grid="1" gridSize="10" guides="1" tooltips="1" connect="1" arrows="1" fold="1" page="1" pageScale="1" pageWidth="850" pageHeight="1100" math="0" shadow="0">
      <root>
        <mxCell id="0" />
        <mxCell id="1" parent="0" />
        <mxCell id="4MptSs-8O_tjFLpsQfbi-1" value="" style="pointerEvents=1;shadow=0;dashed=0;html=1;strokeColor=none;labelPosition=center;verticalLabelPosition=bottom;verticalAlign=top;outlineConnect=0;align=center;shape=mxgraph.office.servers.physical_host;fillColor=#2072B8;" vertex="1" parent="1">
          <mxGeometry x="380" y="140" width="90" height="170" as="geometry" />
        </mxCell>
        <mxCell id="4MptSs-8O_tjFLpsQfbi-2" value="" style="pointerEvents=1;shadow=0;dashed=0;html=1;strokeColor=none;labelPosition=center;verticalLabelPosition=bottom;verticalAlign=top;outlineConnect=0;align=center;shape=mxgraph.office.servers.server_generic;fillColor=#DA4026;" vertex="1" parent="1">
          <mxGeometry x="180" y="430" width="80" height="150" as="geometry" />
        </mxCell>
        <mxCell id="4MptSs-8O_tjFLpsQfbi-3" value="" style="pointerEvents=1;shadow=0;dashed=0;html=1;strokeColor=none;labelPosition=center;verticalLabelPosition=bottom;verticalAlign=top;outlineConnect=0;align=center;shape=mxgraph.office.servers.server_generic;fillColor=#7FBA42;" vertex="1" parent="1">
          <mxGeometry x="550" y="430" width="70" height="152.5" as="geometry" />
        </mxCell>
        <mxCell id="4MptSs-8O_tjFLpsQfbi-4" value="GW&lt;br style=&quot;font-size: 16px&quot;&gt;Inet1ï¼š172.16.111.1&lt;br style=&quot;font-size: 16px&quot;&gt;Inet2:172.16.222.1" style="text;html=1;strokeColor=none;fillColor=none;align=center;verticalAlign=middle;whiteSpace=wrap;rounded=0;fontSize=16;" vertex="1" parent="1">
          <mxGeometry x="290" y="300" width="250" height="100" as="geometry" />
        </mxCell>
        <mxCell id="4MptSs-8O_tjFLpsQfbi-5" value="Kali Victim&lt;br style=&quot;font-size: 15px;&quot;&gt;172.16.111.108" style="text;html=1;strokeColor=none;fillColor=none;align=center;verticalAlign=middle;whiteSpace=wrap;rounded=0;fontSize=15;" vertex="1" parent="1">
          <mxGeometry x="171" y="590" width="100" height="40" as="geometry" />
        </mxCell>
        <mxCell id="4MptSs-8O_tjFLpsQfbi-7" value="Kali Attacker&lt;br style=&quot;font-size: 15px;&quot;&gt;172.16.222.141" style="text;html=1;strokeColor=none;fillColor=none;align=center;verticalAlign=middle;whiteSpace=wrap;rounded=0;fontSize=15;" vertex="1" parent="1">
          <mxGeometry x="537.5" y="590" width="95" height="40" as="geometry" />
        </mxCell>
        <mxCell id="4MptSs-8O_tjFLpsQfbi-8" value="" style="endArrow=none;html=1;" edge="1" parent="1" source="4MptSs-8O_tjFLpsQfbi-2" target="4MptSs-8O_tjFLpsQfbi-1">
          <mxGeometry width="50" height="50" relative="1" as="geometry">
            <mxPoint x="280" y="390" as="sourcePoint" />
            <mxPoint x="330" y="340" as="targetPoint" />
          </mxGeometry>
        </mxCell>
        <mxCell id="4MptSs-8O_tjFLpsQfbi-10" value="" style="endArrow=none;html=1;" edge="1" parent="1" source="4MptSs-8O_tjFLpsQfbi-3" target="4MptSs-8O_tjFLpsQfbi-1">
          <mxGeometry width="50" height="50" relative="1" as="geometry">
            <mxPoint x="590" y="340" as="sourcePoint" />
            <mxPoint x="640" y="290" as="targetPoint" />
          </mxGeometry>
        </mxCell>
        <mxCell id="4MptSs-8O_tjFLpsQfbi-11" value="Inet1" style="text;html=1;strokeColor=none;fillColor=none;align=center;verticalAlign=middle;whiteSpace=wrap;rounded=0;fontSize=19;fontColor=#3333FF;rotation=-55;" vertex="1" parent="1">
          <mxGeometry x="250" y="350" width="80" height="40" as="geometry" />
        </mxCell>
        <mxCell id="4MptSs-8O_tjFLpsQfbi-12" value="Inet2" style="text;html=1;strokeColor=none;fillColor=none;align=center;verticalAlign=middle;whiteSpace=wrap;rounded=0;fontSize=19;fontColor=#3333FF;rotation=61;" vertex="1" parent="1">
          <mxGeometry x="490" y="350" width="80" height="40" as="geometry" />
        </mxCell>
      </root>
    </mxGraphModel>
  </diagram>
</mxfile>
